<svg width="16" height="14" viewBox="0 0 16 14" fill="none" xmlns="http://www.w3.org/2000/svg">
<path d="M10.2817 6.97738C10.2817 8.07738 9.30673 8.96627 8.10025 8.96627C6.89376 8.96627 5.91882 8.07738 5.91882 6.97738C5.91882 5.87738 6.89376 4.98849 8.10025 4.98849C9.30673 4.98849 10.2817 5.87738 10.2817 6.97738Z" stroke="white" stroke-width="0.7" stroke-linecap="round" stroke-linejoin="round"/>
<path d="M8.10024 11.5719C10.2512 11.5719 12.2559 10.4163 13.6513 8.4163C14.1997 7.63297 14.1997 6.3163 13.6513 5.53297C12.2559 3.53297 10.2512 2.37741 8.10024 2.37741C5.94928 2.37741 3.94456 3.53297 2.54918 5.53297C2.00078 6.3163 2.00078 7.63297 2.54918 8.4163C3.94456 10.4163 5.94928 11.5719 8.10024 11.5719Z" stroke="white" stroke-width="0.7" stroke-linecap="round" stroke-linejoin="round"/>
</svg>
