<svg width="19" height="20" viewBox="0 0 19 20" fill="none" xmlns="http://www.w3.org/2000/svg">
<g clip-path="url(#clip0_4_3853)">
<path d="M13.735 6.70212C12.9384 3.04462 9.88092 1.39795 7.19519 1.39795H7.18761C4.50947 1.39795 1.4444 3.0367 0.647783 6.6942C-0.239873 10.7792 2.15756 14.2388 4.32738 16.4159C5.09647 17.1926 6.12485 17.627 7.19519 17.6271C8.227 17.6271 9.25881 17.2234 10.0554 16.4159C12.2252 14.2388 14.6227 10.7871 13.735 6.70212ZM7.19519 10.6684C6.88136 10.6684 6.57059 10.6039 6.28064 10.4785C5.99069 10.3532 5.72724 10.1695 5.50532 9.93796C5.2834 9.7064 5.10737 9.43149 4.98727 9.12893C4.86717 8.82638 4.80535 8.5021 4.80535 8.17462C4.80535 7.84713 4.86717 7.52286 4.98727 7.2203C5.10737 6.91774 5.2834 6.64284 5.50532 6.41127C5.72724 6.1797 5.99069 5.99601 6.28064 5.87069C6.57059 5.74537 6.88136 5.68087 7.19519 5.68087C7.82902 5.68087 8.43689 5.9436 8.88507 6.41127C9.33325 6.87894 9.58504 7.51323 9.58504 8.17462C9.58504 8.836 9.33325 9.4703 8.88507 9.93796C8.43689 10.4056 7.82902 10.6684 7.19519 10.6684Z" fill="#576AF4"/>
</g>
<defs>
<clipPath id="clip0_4_3853">
<rect width="18.2083" height="19" fill="white" transform="translate(0.45813 0.0125732)"/>
</clipPath>
</defs>
</svg>
